<svg xmlns="http://www.w3.org/2000/svg" xmlns:xlink="http://www.w3.org/1999/xlink" preserveAspectRatio="xMidYMid" width="30" height="26" viewBox="0 0 30 26">
  <defs>
    <style>

      .cls-2 {
        fill: #e0e0e0;
      }
    </style>
  </defs>
  <path d="M-0.000,26.000 C-0.000,26.000 -0.000,20.000 -0.000,20.000 C-0.000,20.000 30.000,20.000 30.000,20.000 C30.000,20.000 30.000,26.000 30.000,26.000 C30.000,26.000 -0.000,26.000 -0.000,26.000 ZM-0.000,10.000 C-0.000,10.000 30.000,10.000 30.000,10.000 C30.000,10.000 30.000,16.000 30.000,16.000 C30.000,16.000 -0.000,16.000 -0.000,16.000 C-0.000,16.000 -0.000,10.000 -0.000,10.000 ZM-0.000,0.000 C-0.000,0.000 30.000,0.000 30.000,0.000 C30.000,0.000 30.000,6.000 30.000,6.000 C30.000,6.000 -0.000,6.000 -0.000,6.000 C-0.000,6.000 -0.000,0.000 -0.000,0.000 Z" id="path-1" class="cls-2" fill-rule="evenodd"/>
</svg>
