<svg xmlns="http://www.w3.org/2000/svg" xmlns:xlink="http://www.w3.org/1999/xlink" preserveAspectRatio="xMidYMid" width="136" height="31" viewBox="0 0 136 31">
  <defs>
    <style>

      .cls-2 {
        fill: #0060ff;
      }
    </style>
  </defs>
  <path d="M125.000,30.000 C125.000,30.000 125.000,20.000 125.000,20.000 C125.000,20.000 136.000,20.000 136.000,20.000 C136.000,20.000 136.000,30.000 136.000,30.000 C136.000,30.000 125.000,30.000 125.000,30.000 ZM117.919,26.920 C115.188,29.610 111.642,30.996 108.056,30.996 C104.510,30.996 100.964,29.610 98.233,26.920 C98.233,26.920 100.393,24.760 100.393,24.760 C94.973,19.299 94.070,9.597 100.393,4.076 C103.308,1.588 106.670,0.000 110.257,0.000 C113.802,0.000 117.349,1.386 120.079,4.076 C120.079,4.076 117.919,6.236 117.919,6.236 C123.340,11.697 123.340,21.500 117.919,26.920 ZM90.000,30.000 C90.000,30.000 68.000,30.000 68.000,30.000 C68.000,30.000 68.000,16.000 68.000,16.000 C68.000,16.000 65.000,16.000 65.000,16.000 C65.000,16.000 65.000,1.000 65.000,1.000 C65.000,1.000 93.000,1.000 93.000,1.000 C93.000,1.000 93.000,16.000 93.000,16.000 C93.000,16.000 90.000,16.000 90.000,16.000 C90.000,16.000 90.000,30.000 90.000,30.000 ZM44.000,30.000 C44.000,30.000 32.000,30.000 32.000,30.000 C32.000,30.000 32.000,1.000 32.000,1.000 C32.000,1.000 47.000,10.000 47.000,10.000 C47.000,10.000 61.000,1.000 61.000,1.000 C61.000,1.000 61.000,30.000 61.000,30.000 C61.000,30.000 50.000,30.000 50.000,30.000 C50.000,30.000 44.000,30.000 44.000,30.000 ZM14.299,30.990 C6.414,30.990 -0.000,25.189 -0.000,16.000 C-0.000,16.000 7.000,16.000 7.000,16.000 C7.000,16.000 7.000,2.000 7.000,2.000 C7.000,2.000 29.000,2.000 29.000,2.000 C29.000,2.000 29.000,16.000 29.000,16.000 C29.000,25.733 22.185,30.990 14.299,30.990 Z" id="path-1" class="cls-2" fill-rule="evenodd"/>
</svg>
